<?xml version="1.0" encoding="UTF-8" standalone="no"?>
<!-- Created with Inkscape (http://www.inkscape.org/) -->

<svg
   width="3000"
   height="3000"
   viewBox="0 0 793.74998 793.75"
   version="1.1"
   id="svg1"
   inkscape:version="1.4.2 (ebf0e940, 2025-05-08)"
   sodipodi:docname="feldroy-logo-03.svg"
   xmlns:inkscape="http://www.inkscape.org/namespaces/inkscape"
   xmlns:sodipodi="http://sodipodi.sourceforge.net/DTD/sodipodi-0.dtd"
   xmlns="http://www.w3.org/2000/svg"
   xmlns:svg="http://www.w3.org/2000/svg">
  <sodipodi:namedview
     id="namedview1"
     pagecolor="#ffffff"
     bordercolor="#000000"
     borderopacity="0.25"
     inkscape:showpageshadow="2"
     inkscape:pageopacity="0.0"
     inkscape:pagecheckerboard="0"
     inkscape:deskcolor="#d1d1d1"
     inkscape:document-units="px"
     inkscape:zoom="0.18529742"
     inkscape:cx="2522.9709"
     inkscape:cy="1869.9667"
     inkscape:window-width="1440"
     inkscape:window-height="804"
     inkscape:window-x="0"
     inkscape:window-y="34"
     inkscape:window-maximized="0"
     inkscape:current-layer="g22">
    <sodipodi:guide
       position="0,793.74999"
       orientation="0,3000"
       id="guide9"
       inkscape:locked="false" />
    <sodipodi:guide
       position="793.74999,793.74999"
       orientation="3000,0"
       id="guide10"
       inkscape:locked="false" />
    <sodipodi:guide
       position="793.74999,0"
       orientation="0,-3000"
       id="guide11"
       inkscape:locked="false" />
    <sodipodi:guide
       position="0,0"
       orientation="-3000,0"
       id="guide12"
       inkscape:locked="false" />
  </sodipodi:namedview>
  <defs
     id="defs1" />
  <g
     inkscape:groupmode="layer"
     id="layer3"
     inkscape:label="bg"
     sodipodi:insensitive="true">
    <rect
       style="fill:#d5f8ff;fill-opacity:1;stroke:#000000;stroke-width:1.13661;stroke-dasharray:none"
       id="rect12"
       width="792.61334"
       height="792.6134"
       x="0.56830502"
       y="0.56830502" />
  </g>
  <g
     inkscape:label="feldroy"
     inkscape:groupmode="layer"
     id="g22">
    <path
       id="path21"
       style="fill:#de8787;stroke:none;stroke-width:1.13824;stroke-dasharray:none"
       d="M 203.86526,109.028 C 172.31305,107.78871 116.75956,174.55362 91.325356,218.72879 64.195554,265.84898 64.195229,350.0939 64.195229,350.0939 -2.0867888,464.74206 37.274988,545.6373 73.068072,535.85775 108.86117,526.0782 138.56551,421.53157 117.97024,365.29711 c 48.01084,32.59048 74.0677,16.88351 103.94198,9.57357 23.14258,73.43672 75.24048,58.2418 103.5699,50.91989 31.61493,58.86466 52.52891,40.91049 91.52723,37.01635 2.34051,27.36712 22.07829,38.33322 49.23886,37.63956 15.51432,28.24839 72.70137,33.42175 122.1648,-59.06838 3.66538,0.0998 9.09752,1.79637 13.49859,5.1984 -2.88558,9.85197 -37.49392,37.88759 -49.22772,69.98398 -11.7338,32.0964 33.4031,29.79408 33.4031,29.79408 5.70711,16.7516 20.55883,33.1343 38.89257,28.73145 23.68347,-5.68758 33.22739,-26.95396 42.01011,-44.99611 5.17175,3.13434 6.33579,3.04592 14.78825,1.92831 -13.22481,24.84944 -27.54987,36.69752 -29.29398,51.46112 -1.40006,11.85132 7.40843,21.44618 26.5673,22.03012 -30.47789,13.95881 -72.60268,58.71445 -78.23433,76.51523 -12.85433,40.63055 6.77018,42.98961 28.10681,32.81989 26.76942,-12.75916 58.92049,-45.88907 76.68818,-101.16883 6.0339,-3.79243 47.6258,-11.7297 54.79782,-24.66229 -4.48381,-1.85686 -8.11649,-2.08754 -14.33598,-4.58334 -16.70517,8.94799 -27.21752,7.769 -36.11689,8.9771 11.22164,-15.26085 46.2082,-45.62483 46.2082,-45.62483 l -16.77745,-11.78027 c 0,0 -35.44552,42.22424 -50.13558,47.12044 -5.77272,1.92405 -10.8235,-2.28463 -9.0835,-7.78944 5.81629,-18.40084 34.42836,-55.39454 34.42836,-55.39454 l -14.97177,-9.32425 c 0,0 -5.48956,4.79329 -14.6568,4.32643 -9.16724,-0.46685 -13.92187,-4.99767 -13.92187,-4.99767 0,0 4.80986,-12.30155 -2.22637,-22.78944 -5.27356,-7.86053 -11.15015,-9.99232 -22.04793,-10.4086 -23.66246,-0.90389 -50.68955,27.48679 -54.25928,48.90507 -3.47485,-2.82753 -12.01655,-6.54744 -11.00237,-13.84922 2.43244,-17.51289 24.42919,-38.51253 32.71604,-48.6311 8.28685,-10.11857 18.6238,-21.22938 18.6238,-21.22938 0.71794,-3.96238 -4.43599,-15.67351 -13.56473,-15.52856 -9.89041,0.15704 -21.06146,-5.71141 -21.06146,-5.71141 l 9.99525,-11.42307 -17.13435,-11.42308 c 0,0 -37.12515,76.39209 -59.25737,85.67333 -22.07339,9.25657 -29.98586,2.8555 -29.98586,2.8555 0,0 27.07152,-32.97297 52.06743,-67.70186 15.81482,-21.97286 54.41422,-46.7798 72.65481,-80.43457 12.07238,-22.27413 25.45662,-58.1728 -1.56676,-67.11693 -18.43769,-6.10246 -62.12359,35.88056 -74.97454,58.72672 -12.85097,22.84615 -24.82559,66.39669 -24.82559,66.39669 0,0 -27.6386,-23.28229 -69.7612,-10.7883 -28.58422,8.47837 -32.84141,42.83666 -32.84141,42.83666 -11.74426,16.7883 -42.9015,13.73395 -64.25499,-2.46206 0,0 68.34297,-68.92223 87.10114,-93.20619 35.15818,-45.51509 52.86969,-111.63735 35.69705,-124.22582 -13.58257,-9.95675 -44.26428,-18.16892 -105.66332,50.36954 -46.91768,52.37321 -51.4041,132.79344 -51.4041,132.79344 0,0 -12.85085,18.56269 -37.12486,18.56269 -26.94126,0 -47.12012,-44.33218 -47.12012,-44.33218 0,0 28.55762,-9.9951 47.12012,-24.27397 18.56247,-14.27884 28.55749,-65.68288 -7.13962,-64.25499 -60.19438,2.40777 -59.97101,68.53845 -59.97101,68.53845 0,0 -27.13001,8.56733 -41.40885,11.42308 -14.27885,2.85578 -44.26448,-12.8509 -44.26448,-12.8509 0,0 45.79723,-26.80095 71.39461,-52.83191 27.61801,-28.08583 39.98037,-72.82179 42.83615,-98.52371 2.85576,-25.70193 -8.56712,-71.3946 -38.55269,-82.81768 -1.8741,-0.71394 -3.87083,-1.0987 -5.97431,-1.18132 z m -3.88194,48.12781 c 6.35134,0.24995 3.88296,27.38545 -2.67988,48.71466 -8.07733,26.25133 -35.75658,69.59551 -47.87258,81.71149 -12.116,12.11601 -50.483741,14.13505 -50.483741,14.13505 0,0 21.556611,-55.33745 48.231031,-95.62483 17.00471,-25.68285 41.17487,-41.01142 46.6779,-45.7283 2.65037,-2.27175 4.66158,-3.26575 6.12727,-3.20807 z m 245.8775,75.51529 c 0.86177,0.01 1.67413,0.13619 2.43138,0.3886 12.11599,4.03867 -10.09678,38.36743 -24.23212,58.56077 -14.13531,20.19335 -68.6573,74.71533 -68.6573,74.71533 0,0 15.07308,-55.80608 34.08351,-84.56674 13.36844,-20.22495 43.44803,-49.24587 56.37453,-49.09796 z m 162.56202,66.3565 c 1.67594,0.0508 2.82491,1.258 4.05815,3.9548 7.70972,16.8593 -64.33031,92.39869 -65.76134,90.14548 0,0 19.08255,-44.18033 31.19855,-64.37366 4.64627,-7.74379 13.61751,-19.32115 18.40822,-22.74307 4.63816,-3.31295 8.8969,-7.08062 12.09642,-6.98355 z M 272.6099,297.6785 c 14.13534,0 16.1445,16.50835 4.03903,26.25111 -12.10547,9.74276 -32.30966,14.13557 -32.30966,14.13557 0,0 14.13529,-40.38668 28.27063,-40.38668 z M 76.734515,366.3358 c 0,0 20.193574,52.50283 14.135571,76.73485 -6.058001,24.232 -30.29014,64.6188 -30.29014,64.6188 0,0 -8.077026,-38.36743 -8.077026,-58.56077 0,-20.19332 24.231595,-82.79288 24.231595,-82.79288 z m 439.327545,59.04005 c -7.56385,11.70871 -21.83119,31.86142 -37.05112,48.10726 0,0 -7.55792,-1.81769 -15.67657,-5.55645 -3.7955,-1.74788 -7.91384,-5.51608 -12.01342,-13.74971 -7.02958,-14.11827 -1.25986,-33.21142 11.09582,-40.91715 5.42325,-3.38226 15.31635,-7.13019 23.76819,-6.86301 7.3044,0.23091 28.17253,2.57293 29.8771,18.97906 z M 624.137,505.32344 c 6.89605,-6.28147 18.89151,-8.042 23.96461,-3.89587 9.63944,7.87813 -2.13491,23.8 -13.90826,37.50011 -7.9241,9.22091 -19.06113,16.26684 -25.41486,2.01951 -1.35612,-15.31822 8.46246,-29.34228 15.35851,-35.62375 z m 59.4075,115.44851 c -5.96192,15.58974 -10.65715,28.83169 -27.13855,46.27121 -16.4814,17.43952 -26.16196,21.99083 -34.10448,21.44797 0,0 12.37843,-21.23984 22.83566,-31.37101 18.59222,-19.3569 38.40737,-36.34817 38.40737,-36.34817 z"
       sodipodi:nodetypes="sscscccccccscsccscssccccccsscczcsscszcscccscsssscsccssscscsscscssssssscsssscscsssscsssszcscscscccssssczssczczscc" />
  </g>
</svg>
