

<svg viewBox="0 0 793.75 793.75" xmlns="http://www.w3.org/2000/svg" width="100%" height="100%">
  <title>Feldroy Logo Square</title>
  <desc>Logo artwork for Feldroy, with the "feldroy" wordmark in cursive and a modern neon color palette.</desc>
  <style>
    .bg { fill: #00ffd0; }
    .logo { fill: #ff2fd6; }
  </style>
  <g id="feldroy-logo">
    <rect class="bg" width="793" height="793" x="1" y="1" />
    <path class="logo"
      d="M204,109C172,108,117,175,91,219,64,266,64,350,64,350,-2,465,37,546,73,536,109,526,139,422,118,365c48,33,74,17,104,10,23,73,75,58,104,51,32,59,53,41,92,37,2,27,22,38,49,38,16,28,73,33,122,-59,4,0,9,2,14,5-3,10-37,38-49,70-12,32,33,30,33,30,6,17,21,33,39,29,24,-6,33,-27,42,-45,5,3,6,3,15,2-13,25-28,37-29,51-1,12,7,21,27,22-30,14-73,59-78,77-13,41,7,43,28,33,27,-13,59,-46,77,-101,6,-4,48,-12,55,-25-4,-2-8,-2-14,-5-17,9-27,8-36,9,11,-15,46,-46,46,-46l-17,-12c0,0-35,42-50,47-6,2-11,-2-9,-8,6,-18,34,-55,34,-55l-15,-9c0,0-5,5-15,4-9,0-14,-5-14,-5,0,0,5,-12-2,-23-5,-8-11,-10-22,-10-24,-1-51,27-54,49-3,-3-12,-7-11,-14,2,-18,24,-39,33,-49,8,-10,19,-21,19,-21,1,-4-4,-16-14,-16-10,0-21,-6-21,-6l10,-11-17,-11c0,0-37,76-59,86-22,9-30,3-30,3,0,0,27,-33,52,-68,16,-22,54,-47,73,-80,12,-22,25,-58-2,-67-18,-6-62,36-75,59-13,23-25,66-25,66,0,0-28,-23-70,-11-29,8-33,43-33,43-12,17-43,14-64,-2,0,0,68,-69,87,-93,35,-46,53,-112,36,-124-14,-10-44,-18-106,50-47,52-51,133-51,133,0,0-13,19-37,19-27,0-47,-44-47,-44,0,0,29,-10,47,-24,19,-14,29,-66-7,-64-60,2-60,69-60,69,0,0-27,9-41,11-14,3-44,-13-44,-13,0,0,46,-27,71,-53,28,-28,40,-73,43,-99,3,-26-9,-71-39,-83-2,-1-4,-1-6,-1z m-4,48c6,0,4,27-3,49-8,26-36,70-48,82-12,12-50,14-50,14,0,0,22,-55,48,-96,17,-26,41,-41,47,-46,3,-2,5,-3,6,-3z m246,76c1,0,2,0,2,0,12,4-10,38-24,59-14,20-69,75-69,75,0,0,15,-56,34,-85,13,-20,43,-49,56,-49z m163,66c2,0,3,1,4,4,8,17-64,92-66,90,0,0,19,-44,31,-64,5,-8,14,-19,18,-23,5,-3,9,-7,12,-7z M273,298c14,0,16,17,4,26-12,10-32,14-32,14,0,0,14,-40,28,-40z M77,366c0,0,20,53,14,77-6,24-30,65-30,65,0,0-8,-38-8,-59,0,-20,24,-83,24,-83z m439,59c-8,12-22,32-37,48,0,0-8,-2-16,-6-4,-2-8,-6-12,-14-7,-14-1,-33,11,-41,5,-3,15,-7,24,-7,7,0,28,3,30,19z M624,505c7,-6,19,-8,24,-4,10,8-2,24-14,38-8,9-19,16-25,2-1,-15,8,-29,15,-36z m59,115c-6,16-11,29-27,46-16,17-26,22-34,21,0,0,12,-21,23,-31,19,-19,38,-36,38,-36z"
    />
  </g>
</svg>
