
<svg viewBox="0 0 793.74998 793.75" xmlns="http://www.w3.org/2000/svg">
  <defs>
    <filter id="dropShadow" x="-20%" y="-20%" width="140%" height="140%">
      <feDropShadow dx="0" dy="8" stdDeviation="8" flood-color="#000" flood-opacity="0.5"/>
    </filter>
  </defs>
  <title>Feldroy Logo Square</title>
  <desc>Logo artwork for Feldroy, with the "feldroy" wordmark in cursive and a modern neon color palette.</desc>
  <rect
    style="fill:#00ffd0;fill-opacity:1;stroke:none;stroke-width:0"
    width="792.61"
    height="792.61"
    x="0.57"
    y="0.57" />
  <path
    style="fill:#ff2fd6;stroke:none;stroke-width:0"
    filter="url(#dropShadow)"
    d="M 203.87,109.03 C 172.31,107.79 116.76,174.55 91.33,218.73 64.20,265.85 64.20,350.09 64.20,350.09 -2.09,464.74 37.27,545.64 73.07,535.86 108.86,526.08 138.57,421.53 117.97,365.30 c 48.01,32.59 74.07,16.88 103.94,9.57 23.14,73.44 75.24,58.24 103.57,50.92 31.61,58.86 52.53,40.91 91.53,37.02 2.34,27.37 22.08,38.33 49.24,37.64 15.51,28.25 72.70,33.42 122.16,-59.07 3.67,0.10 9.10,1.80 13.50,5.20 -2.89,9.85 -37.49,37.89 -49.23,69.98 -11.73,32.10 33.40,29.79 33.40,29.79 5.71,16.75 20.56,33.13 38.89,28.73 23.68,-5.69 33.23,-26.95 42.01,-45.00 5.17,3.13 6.34,3.05 14.79,1.93 -13.22,24.85 -27.55,36.70 -29.29,51.46 -1.40,11.85 7.41,21.45 26.57,22.03 -30.48,13.96 -72.60,58.71 -78.23,76.52 -12.85,40.63 6.77,42.99 28.11,32.82 26.77,-12.76 58.92,-45.89 76.69,-101.17 6.03,-3.79 47.63,-11.73 54.80,-24.66 -4.48,-1.86 -8.12,-2.09 -14.34,-4.58 -16.71,8.95 -27.22,7.77 -36.12,8.98 11.22,-15.26 46.21,-45.62 46.21,-45.62 l -16.78,-11.78 c 0,0 -35.45,42.22 -50.14,47.12 -5.77,1.92 -10.82,-2.28 -9.08,-7.79 5.82,-18.40 34.43,-55.39 34.43,-55.39 l -14.97,-9.32 c 0,0 -5.49,4.79 -14.66,4.33 -9.17,-0.47 -13.92,-5.00 -13.92,-5.00 0,0 4.81,-12.30 -2.23,-22.79 -5.27,-7.86 -11.15,-9.99 -22.05,-10.41 -23.66,-0.90 -50.69,27.49 -54.26,48.91 -3.47,-2.83 -12.02,-6.55 -11.00,-13.85 2.43,-17.51 24.43,-38.51 32.72,-48.63 8.29,-10.12 18.62,-21.23 18.62,-21.23 0.72,-3.96 -4.44,-15.67 -13.56,-15.53 -9.89,0.16 -21.06,-5.71 -21.06,-5.71 l 10.00,-11.42 -17.13,-11.42 c 0,0 -37.13,76.39 -59.26,85.67 -22.07,9.26 -29.99,2.86 -29.99,2.86 0,0 27.07,-32.97 52.07,-67.70 15.81,-21.97 54.41,-46.78 72.65,-80.43 12.07,-22.27 25.46,-58.17 -1.57,-67.12 -18.44,-6.10 -62.12,35.88 -74.97,58.73 -12.85,22.85 -24.83,66.40 -24.83,66.40 0,0 -27.64,-23.28 -69.76,-10.79 -28.58,8.48 -32.84,42.84 -32.84,42.84 -11.74,16.79 -42.90,13.73 -64.25,-2.46 0,0 68.34,-68.92 87.10,-93.21 35.16,-45.52 52.87,-111.64 35.70,-124.23 -13.58,-9.96 -44.26,-18.17 -105.66,50.37 -46.92,52.37 -51.40,132.79 -51.40,132.79 0,0 -12.85,18.56 -37.12,18.56 -26.94,0 -47.12,-44.33 -47.12,-44.33 0,0 28.56,-10.00 47.12,-24.27 18.56,-14.28 28.56,-65.68 -7.14,-64.25 -60.19,2.41 -59.97,68.54 -59.97,68.54 0,0 -27.13,8.57 -41.41,11.42 -14.28,2.86 -44.26,-12.85 -44.26,-12.85 0,0 45.80,-26.80 71.39,-52.83 27.62,-28.09 39.98,-72.82 42.84,-98.52 2.86,-25.70 -8.57,-71.39 -38.55,-82.82 -1.87,-0.71 -3.87,-1.10 -5.97,-1.18 z m -3.88,48.13 c 6.35,0.25 3.88,27.39 -2.68,48.71 -8.08,26.25 -35.76,69.60 -47.87,81.71 -12.12,12.12 -50.48,14.14 -50.48,14.14 0,0 21.56,-55.34 48.23,-95.62 17.00,-25.68 41.17,-41.01 46.68,-45.73 2.65,-2.27 4.66,-3.27 6.13,-3.21 z m 245.88,75.52 c 0.86,0.01 1.67,0.14 2.43,0.39 12.12,4.04 -10.10,38.37 -24.23,58.56 -14.14,20.19 -68.66,74.72 -68.66,74.72 0,0 15.07,-55.81 34.08,-84.57 13.37,-20.22 43.45,-49.25 56.37,-49.10 z m 162.56,66.36 c 1.68,0.05 2.82,1.26 4.06,3.95 7.71,16.86 -64.33,92.40 -65.76,90.15 0,0 19.08,-44.18 31.20,-64.37 4.65,-7.74 13.62,-19.32 18.41,-22.74 4.64,-3.31 8.90,-7.08 12.10,-6.98 z M 272.61,297.68 c 14.14,0 16.14,16.51 4.04,26.25 -12.11,9.74 -32.31,14.14 -32.31,14.14 0,0 14.14,-40.39 28.27,-40.39 z M 76.73,366.34 c 0,0 20.19,52.50 14.14,76.73 -6.06,24.23 -30.29,64.62 -30.29,64.62 0,0 -8.08,-38.37 -8.08,-58.56 0,-20.19 24.23,-82.79 24.23,-82.79 z m 439.33,59.04 c -7.56,11.71 -21.83,31.86 -37.05,48.11 0,0 -7.56,-1.82 -15.68,-5.56 -3.80,-1.75 -7.91,-5.52 -12.01,-13.75 -7.03,-14.12 -1.26,-33.21 11.10,-40.92 5.42,-3.38 15.32,-7.13 23.77,-6.86 7.30,0.23 28.17,2.57 29.88,18.98 z M 624.14,505.32 c 6.90,-6.28 18.89,-8.04 23.96,-3.90 9.64,7.88 -2.13,23.80 -13.91,37.50 -7.92,9.22 -19.06,16.27 -25.41,2.02 -1.36,-15.32 8.46,-29.34 15.36,-35.62 z m 59.41,115.45 c -5.96,15.59 -10.66,28.83 -27.14,46.27 -16.48,17.44 -26.16,21.99 -34.10,21.45 0,0 12.38,-21.24 22.84,-31.37 18.59,-19.36 38.41,-36.35 38.41,-36.35 z" />
</svg>
